<svg id="Layer_1" data-name="Layer 1" xmlns="http://www.w3.org/2000/svg" viewBox="0 0 100 100"><defs><style>.cls-1{fill:#fcfcfc;}.cls-2{fill:#302e2e;}</style></defs><rect class="cls-1" width="100" height="100"/><path class="cls-2" d="M50,24.08C25.15,24.08,5,35.68,5,50S25.15,75.92,50,75.92,95,64.32,95,50,74.85,24.08,50,24.08Zm25.45,9.75a6,6,0,0,1,2.67-.68c1.18,0,1.77.5,1.77,1.48a2.32,2.32,0,0,1-1.18,2,4.63,4.63,0,0,1-2.68.81c-1.29,0-1.94-.54-1.94-1.61A2.15,2.15,0,0,1,75.45,33.83ZM34.22,49.08a.88.88,0,0,1-.49.45,1,1,0,0,0-.56,1.06V63.8A5.24,5.24,0,0,1,33,65.29c-.08.2-.3.3-.65.3a1.93,1.93,0,0,1-.7-.09A2.06,2.06,0,0,1,31.1,65,5,5,0,0,0,29,63.33a4.06,4.06,0,0,1-3.47,2.26c-2.14,0-3.9-1.57-5.26-4.71a27.93,27.93,0,0,1-2.05-11.16q0-7.3,2.32-11.85T26,33.33a4.08,4.08,0,0,1,2.69,1,1.13,1.13,0,0,0,.58.29c.18,0,.35-.22.48-.66s.34-.6.66-.6h.18l.5,0q.51.09.63.87l1,6.18a11.13,11.13,0,0,1,.16,1.29c0,.45-.28.68-.83.68A1.38,1.38,0,0,1,31,42.1a12.45,12.45,0,0,1-.94-2,14.73,14.73,0,0,0-1.64-3.3,2,2,0,0,0-1.53-.92c-1.42,0-2.14,1.41-2.14,4.23V61c0,1.53.39,2.29,1.17,2.29s1.29-.76,1.29-2.29V50.81c0-.66-.19-1.09-.55-1.28a1.31,1.31,0,0,1-.6-1.28A2.8,2.8,0,0,1,26.23,47a.82.82,0,0,1,.67-.21h6.61a.8.8,0,0,1,.65.22,1.86,1.86,0,0,1,.16,1A3.7,3.7,0,0,1,34.22,49.08Zm14.07,2.49h-7v8a5.14,5.14,0,0,0,.5,2.47,1.41,1.41,0,0,0,1.25.89,2.12,2.12,0,0,0,1.9-1.25,7.23,7.23,0,0,0,.76-3.43,3.35,3.35,0,0,1,.18-1.4c.11-.16.49-.24,1.13-.24a1.74,1.74,0,0,1,1.07.22,1.62,1.62,0,0,1,.23,1.07,9.4,9.4,0,0,1-1.56,5.33,4.8,4.8,0,0,1-4.14,2.33q-3,0-5-3.34t-2.06-10q0-6.71,1.91-10.22t5-3.51c1.77,0,3.2,1,4.27,3s1.61,4.77,1.61,8.4ZM64,65.06c-.07.12-.24.18-.49.18H59.11a3.64,3.64,0,0,1-.93-2.59V44.16c0-1-.34-1.52-1-1.52a2.09,2.09,0,0,0-1.43.86V61.64a1.27,1.27,0,0,0,.55,1.09,1,1,0,0,1,.33.85v1c0,.44-.26.66-.77.66H50.32a.66.66,0,0,1-.52-.15,1.51,1.51,0,0,1-.11-.73v-.72a1,1,0,0,1,.28-.79,1.64,1.64,0,0,0,.49-.63,4.66,4.66,0,0,0,.11-1.28v-19a1.07,1.07,0,0,0-.53-1,.66.66,0,0,1-.3-.62v-1c0-.4.15-.61.44-.61h5.09c.22,0,.35,0,.41.12a1.06,1.06,0,0,1,.07.49v2Q57.61,38.39,60,38.4a2.81,2.81,0,0,1,2.5,1.32A5.9,5.9,0,0,1,63.36,43V61.64a1.18,1.18,0,0,0,.39,1c.24.18.36.65.36,1.4A2.59,2.59,0,0,1,64,65.06Zm7.57-4a12.58,12.58,0,0,1-.87,4.9A7,7,0,0,1,68.24,69a6.37,6.37,0,0,1-3.85,1V68.35a1,1,0,0,1,.07-.43.85.85,0,0,1,.42-.23,1.85,1.85,0,0,0,1.23-1.23A5,5,0,0,0,66.39,65V42.76a1.93,1.93,0,0,0-.51-1.56,1.34,1.34,0,0,1-.37-.41,1.57,1.57,0,0,1-.06-.54V39.1a.42.42,0,0,1,.46-.43h5c.41,0,.61.27.61.8ZM70.7,36.57a4.13,4.13,0,0,1-2.48.8c-1.56,0-2.34-.6-2.34-1.81A2,2,0,0,1,67,33.87a4.59,4.59,0,0,1,2.53-.72,2.93,2.93,0,0,1,1.6.43,1.33,1.33,0,0,1,.68,1.17A2.25,2.25,0,0,1,70.7,36.57ZM80.69,65c-.06.15-.22.22-.5.22h-6a.33.33,0,0,1-.28-.25,5.32,5.32,0,0,1-.06-1.07c0-.7.13-1.11.4-1.23a.77.77,0,0,0,.5-.78V42.52c0-.75-.22-1.2-.67-1.36-.19-.06-.28-.25-.28-.56V39.32c0-.43.21-.65.62-.65h5c.35,0,.53.22.53.65V61.68a2.52,2.52,0,0,0,0,.6.5.5,0,0,0,.28.25,1.22,1.22,0,0,1,.55,1.21A6,6,0,0,1,80.69,65Z"/><path class="cls-2" d="M42.34,40.87c-.71,0-1.07.61-1.07,1.83v6.44h2.11V42.7C43.38,41.48,43,40.87,42.34,40.87Z"/></svg>